<svg width="54" height="54" viewBox="0 0 54 54" fill="none" xmlns="http://www.w3.org/2000/svg">
<g clip-path="url(#clip0_234_1011)">
<path d="M25.1797 0.0460968C21.1733 0.280117 17.0253 1.50455 13.5765 3.46866C10.7283 5.09427 8.16314 7.25061 6.09558 9.75798C3.27735 13.1764 1.34706 17.2801 0.497728 21.6471C0.141696 23.4775 0.0258789 24.7353 0.0258789 26.7454C0.0258789 28.7555 0.141696 30.0133 0.497728 31.8437C1.26127 35.7928 2.91703 39.533 5.31917 42.7466C6.73901 44.6439 8.55348 46.4868 10.4109 47.916C10.6425 48.0957 10.9857 48.384 11.1787 48.5595C11.7149 49.0485 12.4269 49.5249 13.2334 49.9302C13.8339 50.2311 16.0473 51.2591 16.4934 51.443C19.0371 52.4919 21.628 53.1229 24.472 53.3904C25.5486 53.4949 27.9422 53.4949 29.0189 53.3904C32.532 53.0603 35.7792 52.1409 38.7519 50.6323C41.2055 49.3911 41.643 49.1279 42.6167 48.3046C42.8312 48.1249 43.3031 47.7405 43.6677 47.4437C44.4012 46.8545 45.761 45.5758 46.413 44.8612C49.7931 41.1711 52.0494 36.708 52.9931 31.8437C53.3492 30.0133 53.465 28.7555 53.465 26.7454C53.465 24.7353 53.3492 23.4775 52.9931 21.6471C52.058 16.8204 49.8575 12.4409 46.5116 8.73413C45.8682 8.01954 44.4655 6.69063 43.7106 6.07632C40.0859 3.1218 35.8478 1.18277 31.3052 0.397129C29.2934 0.0544548 27.1658 -0.0709152 25.1797 0.0460968ZM28.1824 0.250866C33.9175 0.59354 39.1551 2.63287 43.5819 6.24348C44.6843 7.14195 46.5417 8.97234 46.4087 9.02248C46.3744 9.03502 46.2328 9.16874 46.0913 9.31501C45.9497 9.46127 45.6494 9.71619 45.4221 9.88335C45.0274 10.1717 44.0709 10.74 43.9851 10.74C43.9594 10.74 43.7663 10.5185 43.5518 10.2469C41.6988 7.91506 39.3781 5.90081 36.6371 4.24594L35.9851 3.85312L36.1824 3.74029C36.4484 3.58985 37.1819 3.04658 37.3406 2.88778C37.4564 2.76659 37.4607 2.74988 37.3964 2.69137C37.332 2.62869 37.2977 2.6454 36.9888 2.9045C36.65 3.18449 36.0666 3.58567 35.8521 3.6776C35.7492 3.72357 35.7063 3.71104 35.3545 3.51463C34.8398 3.23046 33.0982 2.40302 32.4419 2.13557C30.473 1.32903 28.0881 0.601898 26.4881 0.313549C26.2779 0.271759 26.0934 0.23415 26.0848 0.225792C26.0505 0.19236 27.4918 0.209076 28.1824 0.250866ZM23.9572 0.476528C21.6366 1.05322 19.3846 1.91409 17.4028 2.9839C17.0811 3.15942 16.8023 3.3015 16.7894 3.3015C16.7165 3.3015 16.3562 2.76241 16.2704 2.52003L16.2232 2.39049L16.4634 2.28601C18.6382 1.34157 21.4564 0.622791 24.0859 0.338623C24.7122 0.271759 24.6907 0.296833 23.9572 0.476528ZM25.5615 1.33739C25.6559 2.92122 25.7331 5.70021 25.6859 5.74619C25.6773 5.75454 25.1883 5.74619 24.6007 5.72111C23.3653 5.67514 21.6838 5.50798 21.5937 5.42023C21.568 5.39515 22.0484 4.44653 22.3401 3.94924C22.636 3.4394 23.2923 2.4866 23.6226 2.0896C23.7814 1.89319 24.0902 1.56306 24.3004 1.35411C24.7551 0.90696 25.4414 0.397129 25.4843 0.472351C25.5015 0.501602 25.5358 0.890244 25.5615 1.33739ZM26.0419 0.631149C26.6725 1.02815 27.5347 1.83469 28.1395 2.59526C28.8988 3.54806 30.0269 5.39515 29.8982 5.47455C29.8382 5.51217 29.6623 5.53306 28.6972 5.62082C28.0323 5.6835 26.0033 5.77126 25.9476 5.742C25.9347 5.73365 25.909 5.14024 25.8961 4.42146C25.8661 3.08001 25.7974 1.4753 25.7417 0.82338C25.7245 0.622791 25.7245 0.459812 25.7417 0.459812C25.7545 0.459812 25.8918 0.539211 26.0419 0.631149ZM24.6864 0.718906C23.6441 1.55888 22.5803 2.97554 21.6966 4.69727C21.5079 5.06919 21.3449 5.37844 21.3363 5.3868C21.3149 5.40769 20.5256 5.23217 20.0323 5.09427C19.2259 4.86861 18.1578 4.42982 18.2092 4.34624C18.2478 4.28355 19.1958 3.5188 19.5819 3.23463C21.0618 2.14811 22.872 1.19949 24.5149 0.652046C24.9224 0.518318 24.931 0.518318 24.6864 0.718906ZM28.0108 1.17441C29.7224 1.91409 31.3953 2.99226 32.858 4.29609C33.1068 4.51339 33.3127 4.7098 33.3213 4.72652C33.3599 4.81428 30.6961 5.43276 30.2671 5.43276C30.1942 5.43276 30.1427 5.37008 30.0312 5.14859C29.6066 4.29609 28.7872 3.0424 28.1696 2.29855C27.7706 1.81379 26.857 0.932034 26.5395 0.718906C26.428 0.643688 26.3379 0.572643 26.3379 0.568466C26.3379 0.526676 27.4704 0.940392 28.0108 1.17441ZM28.4183 0.982182C29.6237 1.30396 31.1551 1.83469 32.4462 2.36959C33.1712 2.6663 34.6382 3.36 35.1401 3.64L35.5304 3.8573L35.2773 3.98267C34.9299 4.154 34.3165 4.4131 33.9261 4.55518L33.6044 4.66801L33.1111 4.23341C31.4682 2.77077 30.0098 1.83887 27.7964 0.840096C27.6591 0.781593 27.7234 0.794128 28.4183 0.982182ZM22.902 1.06158C21.3106 1.75529 19.2773 3.0633 18.1835 4.08714L17.9819 4.27102L17.6688 4.06207C17.4929 3.94924 17.257 3.77372 17.1369 3.66925L16.9267 3.48119L17.2441 3.30568C18.3465 2.70809 19.7406 2.07289 20.9631 1.61738C21.6923 1.34575 23.1251 0.881886 23.2495 0.877708C23.2838 0.877708 23.1293 0.961288 22.902 1.06158ZM16.2747 3.00897C16.3433 3.11345 16.4462 3.24717 16.5063 3.30986L16.6135 3.42269L16.4076 3.5397C15.9658 3.79462 14.7948 4.55936 14.3058 4.91457C12.3583 6.33541 10.5567 8.10729 9.19692 9.94603L8.82802 10.4433L8.59209 10.2469C8.13311 9.86245 7.71274 9.28576 7.52829 8.78846L7.42963 8.52937L8.36046 7.63925C10.5138 5.57067 12.7873 3.9952 15.3781 2.77495L16.0216 2.47407L16.0859 2.6454C16.1245 2.74152 16.2103 2.9045 16.2747 3.00897ZM16.9996 3.82804C17.1454 3.9576 17.3856 4.13729 17.5315 4.23341L17.7974 4.40474L17.1454 5.05248C16.4162 5.77962 15.983 6.27273 15.3352 7.10852C14.3143 8.42489 13.3406 10.0421 12.65 11.5549C12.5042 11.8767 12.3712 12.1567 12.354 12.1734C12.3068 12.2236 11.3202 11.8475 10.5739 11.4922C10.0248 11.229 9.40281 10.8738 9.03391 10.6063C8.98244 10.5729 9.55724 9.79141 10.1535 9.08099C11.7149 7.213 13.5894 5.57485 15.6655 4.25012C16.2618 3.86983 16.6907 3.60238 16.7208 3.59821C16.7293 3.59402 16.858 3.6985 16.9996 3.82804ZM36.6543 4.50504C38.8462 5.83394 40.8838 7.51388 42.4966 9.32755C42.8784 9.7538 43.4703 10.4684 43.6591 10.7317L43.762 10.8654L43.3803 11.0367C42.1964 11.5716 40.4934 12.1274 38.8591 12.5077C38.7604 12.5328 38.739 12.5203 38.6875 12.3991C38.3143 11.4797 37.658 10.1341 37.1776 9.29829C36.3583 7.87327 35.0886 6.18497 34.1191 5.22382C33.9218 5.0274 33.7588 4.85607 33.7588 4.84353C33.7588 4.83099 33.8403 4.79338 33.9433 4.76831C34.1964 4.69309 34.9513 4.37549 35.3889 4.16236L35.7535 3.98267L35.9465 4.08714C36.0537 4.14565 36.3712 4.3337 36.6543 4.50504ZM19.3803 5.11516C19.8393 5.26978 20.9503 5.55813 21.1004 5.55813C21.1476 5.55813 21.1991 5.57485 21.2119 5.59992C21.2248 5.62082 21.1604 5.81305 21.0661 6.02617C20.2897 7.81059 19.5733 10.18 19.0629 12.6498C18.9084 13.4104 18.8956 13.4563 18.8012 13.4563C18.4323 13.4563 16.2146 13.1346 15.1851 12.9298C14.3487 12.7626 12.6457 12.3322 12.5814 12.2695C12.547 12.2361 13.1647 10.949 13.568 10.2177C14.6532 8.24102 15.8285 6.66555 17.3428 5.15277L17.9776 4.52175L18.458 4.74324C18.724 4.86443 19.1358 5.03159 19.3803 5.11516ZM33.9132 5.31575C35.1787 6.56944 36.4956 8.41653 37.4907 10.3263C37.9626 11.2331 38.546 12.5286 38.4988 12.5704C38.4344 12.6331 36.5342 12.9841 35.2816 13.1596C34.1964 13.3143 32.8151 13.4689 32.7851 13.4396C32.7722 13.4313 32.6993 13.1137 32.6178 12.7376C32.0816 10.2302 31.288 7.76462 30.4387 5.96349C30.3572 5.78798 30.3015 5.64171 30.3186 5.64171C30.5889 5.64171 32.6007 5.20292 33.1797 5.01905C33.3213 4.97308 33.4586 4.93547 33.48 4.93547C33.5057 4.93129 33.6988 5.1068 33.9132 5.31575ZM21.9326 5.7044C22.6275 5.81305 23.5068 5.88827 24.6264 5.93424C25.2226 5.95931 25.7202 5.98439 25.7245 5.99274C25.7503 6.01781 25.8146 13.7322 25.7889 13.7572C25.7503 13.7907 22.4902 13.7238 21.4907 13.6653C19.8307 13.5734 19.1315 13.5065 19.1315 13.4396C19.1315 13.4146 19.1615 13.2516 19.1958 13.0802C19.6934 10.5729 20.3883 8.19087 21.1476 6.38974C21.2677 6.10558 21.3878 5.82141 21.4135 5.75454C21.465 5.62082 21.4307 5.625 21.9326 5.7044ZM30.2242 6.00528C30.7433 7.09599 31.4339 9.00159 31.85 10.4893C32.073 11.3 32.4934 13.0844 32.5234 13.3519L32.5363 13.4772L32.236 13.5065C31.0435 13.6235 28.4141 13.7447 27.0371 13.7531H26.0419L26.0162 12.1734C26.0076 11.3042 25.9862 9.55739 25.969 8.29116L25.9433 5.98439L26.3894 5.95931C26.6339 5.94677 27.2473 5.91752 27.7535 5.89245C28.2596 5.86319 28.9545 5.80887 29.2977 5.77126C29.6409 5.72947 29.954 5.69186 29.9926 5.68768C30.0441 5.6835 30.1127 5.77544 30.2242 6.00528ZM7.36957 8.97234C7.51113 9.34844 7.87145 9.84573 8.30469 10.2636L8.70362 10.6439L8.51917 10.9114C7.45107 12.4659 6.413 14.5805 5.73955 16.578C5.58941 17.021 5.45215 17.3846 5.4307 17.3846C5.36207 17.3846 4.65429 16.8204 4.25108 16.4443C3.80925 16.0264 3.37172 15.4915 3.17011 15.107L3.03285 14.8563L3.26019 14.4175C3.96368 13.051 5.00604 11.4505 6.03124 10.1717C6.36153 9.75798 7.24089 8.73413 7.26662 8.73413C7.2752 8.73413 7.32239 8.84278 7.36957 8.97234ZM47.2451 9.9126C48.4162 11.3293 49.4714 12.9382 50.3551 14.6599L50.7025 15.3369L50.265 15.7673C49.8103 16.2061 49.0982 16.7494 48.4934 17.1213C48.0258 17.4096 47.524 17.6896 47.5111 17.6687C47.5025 17.6646 47.4425 17.4974 47.3781 17.301C46.6918 15.2617 45.7224 13.3268 44.4698 11.5006C44.2596 11.1914 44.0966 10.9364 44.1052 10.9323C44.1138 10.9239 44.2553 10.8487 44.4183 10.7609C44.8173 10.5478 45.2548 10.272 45.598 10.0213C45.9111 9.79141 46.4387 9.30247 46.5073 9.17292C46.5631 9.08099 46.5331 9.04755 47.2451 9.9126ZM9.32989 11.0535C10.0377 11.509 11.6205 12.2361 12.1353 12.3489C12.2082 12.3656 12.2682 12.3824 12.2682 12.3907C12.2682 12.3991 12.1653 12.6623 12.0366 12.9841C11.5004 14.3256 10.9942 15.9846 10.6382 17.5517C10.531 18.0156 10.3165 19.1146 10.2736 19.3988C10.2564 19.5116 10.2307 19.5994 10.2135 19.5994C10.1449 19.5994 9.27842 19.2985 8.64357 19.052C7.55402 18.6341 5.74384 17.7022 5.6752 17.5266C5.64947 17.4556 6.18137 15.9094 6.49022 15.1697C6.95349 14.0581 7.44678 13.0719 8.02587 12.0898C8.30469 11.6176 8.84946 10.7818 8.87949 10.7818C8.89665 10.7818 9.09826 10.903 9.32989 11.0535ZM44.3068 11.6301C45.3148 13.1095 46.1127 14.6097 46.7647 16.2562C46.9577 16.741 47.3181 17.769 47.3009 17.7857C47.2966 17.7899 47.095 17.8902 46.8591 18.003C45.8682 18.4878 44.3883 19.0478 43.0886 19.4322C42.2435 19.683 40.7079 20.0716 40.6821 20.0466C40.6693 20.034 40.6135 19.7206 40.5535 19.3445C40.236 17.2759 39.7427 15.3202 39.065 13.402C38.9106 12.9716 38.8462 12.7334 38.8805 12.725C38.9063 12.7167 39.198 12.6415 39.5283 12.5579C40.9824 12.1901 42.5266 11.6678 43.5175 11.2039C43.7063 11.1161 43.8778 11.0535 43.895 11.0618C43.9122 11.0743 44.0966 11.3293 44.3068 11.6301ZM14.0484 12.8922C15.3095 13.1931 16.695 13.4313 18.2436 13.611C18.7712 13.6695 18.8698 13.6904 18.8527 13.7447C18.8441 13.7823 18.7669 14.2253 18.6811 14.7309C18.4151 16.3774 18.1878 18.2747 18.0334 20.2054C17.9948 20.6859 17.9562 21.0913 17.9476 21.0996C17.9176 21.1289 16.0859 20.8907 15.0693 20.7277C13.8682 20.5313 12.7143 20.2889 11.7449 20.0382C10.5781 19.7373 10.4323 19.6872 10.4495 19.6078C10.458 19.5702 10.5138 19.2651 10.5739 18.9308C10.9599 16.8037 11.6977 14.2712 12.4141 12.6164L12.4784 12.4618L12.8773 12.5871C13.0961 12.654 13.6237 12.7919 14.0484 12.8922ZM38.8076 13.3101C39.1765 14.3005 39.6569 15.9386 39.9143 17.1129C40.1846 18.3332 40.4762 20.0507 40.4205 20.1051C40.369 20.151 38.8548 20.4477 37.8082 20.6191C36.4998 20.8322 35.9722 20.8991 33.9218 21.1247C33.7717 21.1414 33.7159 21.1331 33.7159 21.0955C33.7159 20.9283 33.5315 18.7887 33.4543 18.095C33.3127 16.7577 32.9996 14.5721 32.8537 13.9077C32.828 13.7948 32.8151 13.6945 32.8237 13.6862C32.8323 13.6737 33.1969 13.6277 33.6344 13.5817C35.1143 13.4187 36.4698 13.2098 37.7267 12.9549C38.1513 12.8671 38.5245 12.8003 38.5588 12.8044C38.5974 12.8044 38.6961 13.005 38.8076 13.3101ZM20.2039 13.7907C21.1562 13.8659 22.4044 13.916 24.9352 13.9829L25.8232 14.008V17.7523V21.4925L24.0988 21.4674C23.1465 21.4507 21.8682 21.4089 21.2548 21.3755C20.0194 21.3044 18.2307 21.1582 18.1964 21.1247C18.1149 21.0495 18.5739 16.7368 18.8355 15.1279C19.0629 13.7196 19.0629 13.7071 19.1186 13.7071C19.1358 13.7071 19.6248 13.7447 20.2039 13.7907ZM32.6135 13.799C32.6779 14.0539 32.9567 15.8049 33.0682 16.6741C33.2913 18.3875 33.5358 21.0913 33.4714 21.1498C33.4371 21.179 31.4639 21.3253 30.087 21.3964C29.6366 21.4172 28.5342 21.4507 27.6419 21.4674L26.0162 21.4925L26.0291 17.7523L26.0377 14.0121L26.2007 13.9829C26.2864 13.9704 26.7368 13.9578 27.1958 13.9578C28.4269 13.9578 32.0173 13.7823 32.0816 13.7238C32.0902 13.7154 32.2103 13.7071 32.3476 13.7071C32.5663 13.7071 32.5921 13.7154 32.6135 13.799ZM3.05 15.3285C3.3803 15.9094 4.18244 16.741 4.9803 17.3344L5.39209 17.6395L5.27199 18.0657C4.79585 19.7122 4.4055 22.0065 4.26823 23.9664C4.22963 24.493 4.18673 25.0571 4.16958 25.2117L4.13955 25.4959L3.43177 25.149C2.11917 24.5013 1.23553 23.887 0.609256 23.1808L0.467702 23.0261L0.57923 22.3868C0.935261 20.3474 1.45001 18.5171 2.18352 16.7159C2.43231 16.1016 2.88271 15.1279 2.91274 15.1279C2.92561 15.1279 2.98995 15.2199 3.05 15.3285ZM51.08 16.1852C51.9465 18.1953 52.5384 20.2012 52.9073 22.3784C53.066 23.3145 53.0746 23.4148 53.0232 23.3814C52.9974 23.3688 52.873 23.4399 52.7529 23.5485C52.3583 23.8912 51.6033 24.3718 50.8312 24.7688C50.2564 25.0613 48.8752 25.6463 48.8409 25.6129C48.8323 25.6046 48.8022 25.2285 48.7765 24.7813C48.6392 22.4745 48.2746 20.268 47.7213 18.4C47.614 18.0323 47.5883 17.8986 47.6269 17.8735C47.6569 17.8568 47.9443 17.6854 48.2703 17.4974C49.0725 17.0294 49.8146 16.4861 50.3336 15.9846C50.5738 15.7548 50.7797 15.5709 50.7969 15.5751C50.8097 15.5834 50.9384 15.8551 51.08 16.1852ZM6.19853 18.1242C7.12507 18.6633 8.40764 19.2275 9.59155 19.6245C9.91756 19.7331 10.1921 19.8251 10.1921 19.8251C10.1964 19.8292 10.1835 19.9337 10.1621 20.0591C9.91327 21.5593 9.71595 23.8912 9.66877 25.9723C9.65161 26.6284 9.62587 27.1633 9.60871 27.1633C9.53579 27.1633 7.94437 26.7663 7.3996 26.6159C6.39156 26.3317 5.20335 25.9305 4.57708 25.6631L4.37118 25.5753L4.39692 25.1282C4.54277 22.462 4.94598 19.8961 5.51649 17.978L5.58512 17.7565L5.69665 17.8275C5.76099 17.8693 5.98834 18.003 6.19853 18.1242ZM47.5283 18.5003C48.0945 20.5104 48.4205 22.4787 48.5577 24.7186C48.5792 25.1073 48.6006 25.4959 48.6006 25.5795V25.7299L47.6913 26.0266C45.8982 26.6117 44.2854 27.0045 41.999 27.414C41.4972 27.506 41.0768 27.5812 41.0725 27.5812C41.0682 27.5812 41.051 26.6827 41.0382 25.5837C41.0124 23.4566 40.9438 22.3575 40.7207 20.4937L40.6993 20.2806L41.2484 20.1468C43.3545 19.637 45.2805 18.9809 46.8419 18.2454C47.1122 18.1201 47.3481 18.0114 47.361 18.0114C47.3781 18.0114 47.451 18.2329 47.5283 18.5003ZM10.8355 20.0131C12.8216 20.5815 14.6318 20.92 17.7159 21.3044L17.9519 21.3337L17.9433 21.4799C17.8446 22.9258 17.7588 25.592 17.7588 27.2009V28.3042L17.4071 28.2749C15.095 28.0869 12.517 27.74 10.5696 27.3597L9.88753 27.226L9.9004 26.035C9.91327 24.33 10.0505 22.4244 10.2736 20.8113C10.3079 20.548 10.3508 20.2304 10.3637 20.1092C10.3808 19.9922 10.398 19.8919 10.4023 19.8919C10.4066 19.8919 10.6039 19.9463 10.8355 20.0131ZM40.5277 20.7152C40.5835 21.1414 40.6864 22.2071 40.7551 23.047C40.7765 23.3688 40.8108 24.5264 40.8237 25.6213L40.8494 27.6105L40.2532 27.6982C38.5588 27.9531 36.1653 28.208 34.5524 28.3125C34.3422 28.3251 34.0891 28.3501 33.999 28.3627L33.8317 28.3836L33.8575 27.6397C33.8832 26.7663 33.8232 23.0136 33.7631 22.0441C33.7374 21.6763 33.7245 21.3755 33.7288 21.3671C33.7374 21.3629 34.1749 21.3086 34.7025 21.2501C35.8435 21.1247 36.9331 20.9785 37.9497 20.8071C38.7776 20.6734 40.2017 20.3976 40.2317 20.3683C40.2403 20.36 40.3004 20.3516 40.3647 20.3516C40.4805 20.3516 40.4848 20.36 40.5277 20.7152ZM19.6891 21.4758C21.3492 21.6011 22.473 21.6554 24.206 21.6847L25.7803 21.7098V25.1323C25.7803 27.0129 25.7717 28.5633 25.7631 28.58C25.7159 28.6552 21.1647 28.5256 19.1143 28.3961C18.5953 28.3627 18.1277 28.3334 18.072 28.3334H17.9733V27.1299C17.9733 25.8093 18.0291 23.9372 18.1106 22.3617L18.1621 21.3462L18.3765 21.3713C18.4966 21.3838 19.0886 21.4298 19.6891 21.4758ZM33.583 22.9426C33.6344 24.2631 33.6602 28.3167 33.6173 28.3585C33.5486 28.4253 29.9368 28.5633 27.2473 28.6009L25.9948 28.6176L26.0033 25.1616L26.0162 21.7098L27.5175 21.6805C29.4736 21.6471 31.5068 21.5468 33.1583 21.4047L33.48 21.3755L33.5057 21.5217C33.5229 21.6011 33.5572 22.2405 33.583 22.9426ZM1.49719 24.2631C2.01623 24.635 2.86555 25.1198 3.54759 25.4374L4.161 25.7216V26.9544C4.161 28.6468 4.26395 30.1554 4.47842 31.593C4.53419 31.9482 4.57279 32.2491 4.56421 32.2574C4.54277 32.2825 3.48325 31.7225 3.00282 31.4342C2.0677 30.87 1.10255 30.0719 0.703626 29.5244C0.570651 29.3447 0.514887 29.2987 0.446254 29.3155C0.330436 29.3405 0.321857 29.2737 0.253225 28.0827C0.180302 26.8039 0.253225 24.7103 0.411938 23.5234L0.437675 23.3354L0.793707 23.6739C0.991026 23.8619 1.30845 24.1252 1.49719 24.2631ZM53.1433 24.1001C53.3449 26.2774 53.302 28.4086 53.0146 30.4229C52.4055 34.7021 50.784 38.7557 48.2961 42.2159C47.7985 42.9012 47.361 43.2815 46.4001 43.8624C45.272 44.5436 43.2902 45.3501 41.6945 45.7805C41.5744 45.814 41.5401 45.8557 42.1363 45.2247C43.539 43.7412 44.9202 41.7771 45.8982 39.8673L46.2114 39.2614L46.8505 39.0148C48.5148 38.3754 50.1792 37.4184 51.0199 36.6244C51.3073 36.3528 51.3116 36.3486 51.2215 36.286C51.1315 36.2274 51.1143 36.2358 50.8827 36.4615C50.2307 37.0925 48.8409 37.945 47.5711 38.4924C47.0307 38.7223 46.3572 38.9939 46.3486 38.9814C46.3443 38.973 46.473 38.6638 46.636 38.2877C47.2923 36.7624 47.8671 34.8818 48.1931 33.2019C48.2575 32.8801 48.3218 32.5918 48.339 32.5625C48.3518 32.5333 48.5963 32.4079 48.8795 32.2867C50.4237 31.6222 51.8392 30.7697 52.6929 29.9883C52.9845 29.725 52.9931 29.7125 52.9159 29.6331C52.8387 29.5537 52.8344 29.5537 52.5985 29.7835C52.0752 30.285 51.3417 30.7948 50.3808 31.3214C49.7845 31.6515 48.4376 32.2825 48.4033 32.2491C48.3947 32.2407 48.4205 31.9816 48.4677 31.6724C48.6907 30.1721 48.7765 29.1023 48.8108 27.3388L48.8366 25.8595L49.2441 25.7007C50.6467 25.1616 52.191 24.3258 52.8258 23.7616C52.9459 23.6572 53.0532 23.5736 53.066 23.5694C53.0789 23.5694 53.1132 23.8076 53.1433 24.1001ZM4.94169 26.0308C6.02266 26.4487 7.58834 26.9167 8.9567 27.2302L9.65161 27.389V27.623C9.65161 28.1286 9.74169 29.9465 9.80174 30.6736C9.88753 31.6766 9.96903 32.3995 10.1063 33.3189C10.1664 33.7284 10.2092 34.0753 10.1964 34.0836C10.1277 34.1505 7.49826 33.4067 6.39585 33.0055C5.89397 32.8258 4.85161 32.4079 4.8173 32.3745C4.81301 32.3661 4.76153 32.036 4.70148 31.6348C4.47413 30.0593 4.37547 28.651 4.37547 26.9502C4.37547 26.3317 4.38405 25.826 4.39692 25.826C4.4055 25.826 4.65429 25.918 4.94169 26.0308ZM48.5878 27.4224C48.5577 29.0898 48.4376 30.5441 48.2103 31.9691C48.1459 32.3703 48.1502 32.3703 47.8371 32.4915C46.1427 33.1559 43.865 33.7911 41.5658 34.2424C41.0339 34.3469 40.5535 34.443 40.4977 34.4556C40.4033 34.4806 40.399 34.4723 40.4248 34.3427C40.6607 33.0974 40.9181 30.6402 41.0081 28.7137C41.0296 28.2206 41.0553 27.811 41.0639 27.8069C41.0725 27.7985 41.3985 27.7358 41.7846 27.6648C44.2296 27.2343 46.6232 26.6451 48.1931 26.0851C48.3819 26.0183 48.5535 25.9598 48.5749 25.9556C48.5963 25.9556 48.6006 26.5657 48.5878 27.4224ZM10.5095 27.5603C12.4956 27.9489 15.1251 28.3 17.3985 28.4839L17.7503 28.5089L17.776 29.5829C17.8146 30.9954 17.909 32.8216 18.0205 34.1589C18.0677 34.7523 18.102 35.2454 18.0891 35.2538C18.0505 35.2914 15.7771 35.049 14.4559 34.8693C13.1647 34.6938 10.5353 34.2257 10.4709 34.1589C10.4452 34.1338 10.3208 33.3523 10.2092 32.5124C10.0462 31.267 9.9433 29.8963 9.88324 28.2373C9.8618 27.5937 9.86609 27.4558 9.91327 27.4558C9.94759 27.4558 10.2135 27.506 10.5095 27.5603ZM40.8194 28.1746C40.8065 28.3668 40.7851 28.7764 40.7722 29.0856C40.7079 30.5148 40.532 32.2491 40.3004 33.7577C40.2403 34.1296 40.1931 34.4514 40.1931 34.4723C40.1931 34.5768 36.4913 35.0573 34.4023 35.2287C34.1063 35.2538 33.776 35.283 33.6645 35.2955L33.4586 35.3206L33.48 35.1994C33.5572 34.7732 33.7374 31.8813 33.806 29.9841C33.8317 29.2235 33.8618 28.5967 33.8661 28.5925C33.8746 28.5841 34.3422 28.5424 34.9041 28.4964C36.7186 28.3585 38.9577 28.1119 40.1931 27.9197C40.9181 27.8027 40.8494 27.7734 40.8194 28.1746ZM19.11 28.605C20.7615 28.7095 22.0612 28.7597 23.9358 28.7889L25.7588 28.814L25.7717 32.1948L25.7803 35.5755L24.0559 35.5505C23.1036 35.5337 21.9497 35.5045 21.4907 35.4794C20.0709 35.4126 18.3808 35.3039 18.3508 35.2746C18.2736 35.2078 18.0462 31.5846 17.9905 29.6163L17.9647 28.5424H18.0634C18.1192 28.5424 18.591 28.5716 19.11 28.605ZM33.6301 28.8432C33.6301 29.7041 33.4886 32.4455 33.3728 33.9207C33.3256 34.5015 33.287 35.0281 33.287 35.0908C33.287 35.2955 33.2484 35.3123 32.7036 35.354C31.6441 35.4376 29.4736 35.5212 27.7663 35.5505L25.9948 35.5755V32.1948V28.814L27.3803 28.8015C29.4693 28.7847 31.288 28.7221 33.5358 28.5883C33.6259 28.5841 33.6301 28.6009 33.6301 28.8432ZM0.570651 29.7083C0.634994 29.7919 0.866629 30.0342 1.0854 30.2515C1.81462 30.9703 2.95564 31.7267 4.25108 32.3494L4.61998 32.5249L4.67145 32.8007C5.04464 34.7941 5.74813 37.0841 6.49451 38.7139C6.55456 38.8518 6.59746 38.9688 6.58888 38.9772C6.5374 39.0315 4.92024 38.2459 4.2811 37.8572C3.44464 37.3474 2.63392 36.6788 2.22212 36.1606C2.08057 35.9767 2.03767 35.9475 1.97333 35.9809C1.87896 36.031 1.83606 35.9307 1.50577 34.8985C1.02105 33.3899 0.677889 31.8981 0.471991 30.3811C0.334726 29.3656 0.339015 29.3865 0.399069 29.4784C0.429096 29.5202 0.506307 29.6247 0.570651 29.7083ZM5.55081 32.9094C6.73043 33.3774 8.07735 33.8037 9.51863 34.1589L10.265 34.3427L10.4452 35.212C10.8141 36.9755 11.3245 38.7139 11.8993 40.1557C11.9851 40.373 12.0452 40.5568 12.0366 40.5652C12.0066 40.5944 11.6205 40.5109 10.5953 40.2643C9.52292 40.0052 8.48056 39.7002 7.72131 39.4285C7.42534 39.3199 7.12936 39.2154 7.06501 39.1903C6.91917 39.1402 6.81193 38.9354 6.43874 38.0369C5.80818 36.5116 5.28914 34.7899 4.95456 33.1267C4.89451 32.8049 4.87735 32.6377 4.90738 32.6503C4.93311 32.6628 5.2248 32.7798 5.55081 32.9094ZM48.0859 32.6712C48.0859 32.7715 47.8157 33.9917 47.6612 34.5851C47.3009 35.9767 46.8934 37.1677 46.3186 38.4799C46.014 39.1778 46.1299 39.0942 45.0403 39.4411C43.2559 40.0094 41.4886 40.4273 39.2923 40.8034C38.9749 40.8577 38.709 40.8953 38.7004 40.8912C38.6918 40.8828 38.8205 40.4858 38.9878 40.0052C39.5025 38.5133 39.9057 37.0256 40.2103 35.4836C40.2961 35.0573 40.369 34.7063 40.3776 34.7021C40.3819 34.698 40.8795 34.5977 41.48 34.4765C43.7234 34.0377 46.1341 33.3732 47.6998 32.7673C48.0559 32.6294 48.0859 32.621 48.0859 32.6712ZM11.539 34.5977C13.302 34.9445 15.3181 35.2245 17.6087 35.4376C17.8918 35.4669 18.1277 35.492 18.132 35.4961C18.1363 35.5003 18.1706 35.7678 18.2092 36.0895C18.3722 37.5229 18.7025 39.5664 18.9771 40.8494C19.0586 41.2171 19.1186 41.5222 19.1143 41.5264C19.1015 41.5431 17.3127 41.3801 16.665 41.3049C15.3481 41.1544 14.0098 40.958 12.8001 40.7407L12.3283 40.653L12.0881 40.0428C11.6248 38.8602 11.2516 37.6817 10.9385 36.4239C10.7798 35.797 10.5095 34.5266 10.5095 34.4263C10.5095 34.4012 10.5481 34.3929 10.6082 34.4096C10.6596 34.4221 11.08 34.5099 11.539 34.5977ZM40.1159 34.84C39.8157 36.5325 39.2323 38.7181 38.6618 40.2852L38.4258 40.9413L37.9454 41.0123C37.1433 41.1294 35.8864 41.2798 34.9384 41.3717C34.0891 41.4511 32.5878 41.5765 32.5706 41.564C32.5663 41.5598 32.6307 41.2004 32.7122 40.7658C32.9781 39.3617 33.2055 37.7904 33.3685 36.2818C33.4157 35.8848 33.4586 35.5505 33.4714 35.5379C33.48 35.5254 33.9047 35.4836 34.4065 35.4376C35.509 35.3457 36.3797 35.2538 37.2762 35.1409C38.1342 35.0364 39.9529 34.769 39.9744 34.7439C39.9829 34.7356 40.0258 34.7272 40.0644 34.7272C40.1202 34.7272 40.1331 34.7523 40.1159 34.84ZM19.2602 35.563C20.384 35.6508 22.3915 35.7302 24.0559 35.7594L25.7803 35.7845V38.2542C25.7803 39.6124 25.7931 40.9622 25.8103 41.2547L25.836 41.7854L24.6607 41.7646C22.6961 41.7311 19.8907 41.6183 19.4875 41.5556C19.3545 41.5347 19.3503 41.5305 19.2645 41.1502C18.9685 39.884 18.5867 37.594 18.4452 36.2525C18.4194 36.0227 18.3894 35.7636 18.3765 35.6758L18.3508 35.5212H18.5395C18.6382 35.5212 18.9642 35.5421 19.2602 35.563ZM33.2141 35.7176C33.0511 37.3892 32.6521 40.093 32.4033 41.2505L32.3347 41.5723L32.0044 41.5974C30.9749 41.681 26.0934 41.8189 26.0377 41.7646C26.0248 41.752 26.0076 40.4022 26.0033 38.7641L25.9862 35.7845L27.7792 35.7552C29.6795 35.726 32.0602 35.6257 33.1626 35.5254C33.2226 35.5212 33.2312 35.5546 33.2141 35.7176ZM2.6425 36.9044C3.4618 37.6734 5.03177 38.6094 6.41729 39.1569L6.76475 39.2948L7.07359 39.9049C8.08164 41.8774 9.43284 43.7746 10.9642 45.3752C11.213 45.6301 11.4103 45.8432 11.3975 45.8432C11.3889 45.8432 11.1015 45.7513 10.7626 45.6384C8.51059 44.8988 6.66609 43.8707 5.78673 42.872C5.65805 42.7257 5.49504 42.5502 5.42212 42.4792C5.02319 42.0989 3.86931 40.2601 3.16153 38.8769C2.6811 37.9492 1.97333 36.3612 1.97333 36.2191C1.97333 36.1982 2.04625 36.2734 2.14062 36.3862C2.2307 36.4949 2.45805 36.7289 2.6425 36.9044ZM45.6795 39.8297C44.6714 41.7938 43.3545 43.6325 41.7202 45.3501C41.2913 45.8056 41.1454 45.931 41.0167 45.9644C39.6741 46.3196 37.6795 46.6999 36.1181 46.9088C35.8478 46.9423 35.5604 46.9841 35.4875 46.9966C35.4103 47.0091 35.346 47.005 35.346 46.9924C35.346 46.9799 35.4961 46.7584 35.6805 46.4993C36.6457 45.1495 37.4607 43.7036 38.1899 42.0404C38.3658 41.6392 38.5202 41.2714 38.5374 41.2213C38.5631 41.1461 38.6275 41.121 39.0264 41.0625C39.7728 40.9455 41.5529 40.5944 42.3207 40.4106C43.2344 40.1974 44.6543 39.7963 45.3406 39.5664C45.6366 39.4661 45.8811 39.3867 45.8896 39.3909C45.8982 39.3951 45.8039 39.5915 45.6795 39.8297ZM8.08593 39.7712C9.20121 40.1348 10.9127 40.5903 11.9294 40.7867L12.1696 40.8326L12.4012 41.3425C13.2119 43.1561 14.5674 45.3417 15.6484 46.5912L15.8457 46.8169L15.6141 46.7877C15.1894 46.7375 13.4607 46.3865 12.6757 46.1942L11.9036 46.002L11.6334 45.7471C10.4795 44.6522 9.13257 42.9639 8.17172 41.4135C7.83284 40.8703 7.07788 39.5037 7.07788 39.4369C7.07788 39.4243 7.15081 39.4411 7.24089 39.4787C7.32668 39.5163 7.70845 39.6458 8.08593 39.7712ZM15.0135 41.3049C16.1159 41.4595 17.1497 41.5765 18.4023 41.6852C18.8141 41.7228 19.1658 41.7646 19.183 41.7729C19.2001 41.7854 19.2173 41.8272 19.2173 41.8649C19.2173 42.0069 19.732 43.829 19.9894 44.6062C20.2639 45.4295 20.6457 46.4199 20.9074 47.0008C20.9932 47.1888 21.0618 47.3518 21.0618 47.3643C21.0618 47.3894 20.9674 47.3811 19.5176 47.2599C18.4666 47.1721 17.8618 47.1094 16.8151 46.9715L16.1932 46.8879L16.0259 46.7124C15.5197 46.1692 14.4645 44.6898 13.8554 43.6702C13.4264 42.9514 12.4398 41.0165 12.4398 40.8953C12.4398 40.8912 12.783 40.9497 13.2033 41.0249C13.6194 41.0959 14.4344 41.2255 15.0135 41.3049ZM38.3057 41.2046C38.3057 41.2965 37.6451 42.7424 37.2805 43.457C36.6757 44.6313 35.8006 46.0396 35.1872 46.8127C34.9771 47.0802 35.0671 47.0551 34.0162 47.1596C32.6092 47.2975 30.8848 47.4187 30.8848 47.3727C30.8848 47.3602 30.9578 47.1554 31.0521 46.9214C31.554 45.6175 32.0216 43.9878 32.4934 41.8857C32.5191 41.7771 32.5449 41.7729 33.4586 41.706C34.7883 41.6099 36.8216 41.3926 37.8768 41.2296C38.0784 41.1962 38.2543 41.1711 38.2757 41.167C38.2929 41.167 38.3057 41.1837 38.3057 41.2046ZM20.8259 41.8523C21.5122 41.8857 22.9106 41.9359 23.9315 41.9568C24.9567 41.9819 25.8017 42.0069 25.806 42.0111C25.806 42.0153 25.836 43.2397 25.8618 44.7358C25.8918 46.2277 25.9261 47.4646 25.9347 47.4814C25.9776 47.5524 22.3015 47.4855 21.5422 47.4061L21.3192 47.3852L21.1862 47.1053C20.6414 45.9393 20.0108 44.1089 19.5819 42.4583C19.4103 41.798 19.4017 41.7478 19.509 41.7729C19.5476 41.7813 20.1438 41.8189 20.8259 41.8523ZM32.2103 42.1532C31.8972 43.6493 31.2623 45.814 30.7948 46.9966L30.6275 47.4187L30.0355 47.4437C29.7138 47.4605 28.7015 47.4855 27.7921 47.5023L26.1363 47.5273L26.1106 46.2987C26.0934 45.6217 26.0677 44.3806 26.0505 43.5406L26.0248 42.0069L27.0929 41.9819C28.7658 41.9443 31.0779 41.8649 31.5712 41.8314C31.82 41.8147 32.0816 41.798 32.1545 41.798L32.2875 41.7896L32.2103 42.1532ZM47.1808 43.6576C46.1341 44.974 43.3674 47.6151 43.0328 47.6193C42.9856 47.6193 42.8784 47.7028 42.7883 47.8073C42.591 48.0372 42.0677 48.4216 41.1154 49.0401C40.1374 49.6711 39.8028 49.855 39.1208 50.1266C37.924 50.6114 36.4183 51.0418 34.917 51.3344C34.1921 51.4764 32.8194 51.6937 32.6564 51.6937C32.6135 51.6937 32.8194 51.5893 33.1111 51.4639C33.8832 51.1338 35.0628 50.5487 35.7749 50.1475C37.6666 49.0819 39.1937 47.9912 40.7293 46.6121L41.287 46.1107L41.7159 45.9937C42.3508 45.8181 43.5261 45.4253 44.161 45.1746C44.9974 44.8486 46.2028 44.251 46.7347 43.9042C46.9963 43.7328 47.2151 43.5908 47.2237 43.5908C47.2323 43.5866 47.2108 43.62 47.1808 43.6576ZM6.6618 43.9125C7.63981 44.6355 9.25268 45.3877 11.02 45.9435L11.7621 46.1775L12.1996 46.5787C14.2929 48.5094 17.0382 50.2604 19.9551 51.5266C20.1395 51.606 20.2725 51.677 20.2511 51.6854C20.131 51.723 18.0677 51.3427 17.094 51.1003C16.2832 50.8997 14.9878 50.4902 14.5588 50.298C13.8854 49.9929 12.487 49.1529 11.479 48.4425C10.9942 48.0998 10.6897 47.8031 10.4709 47.4605C10.4194 47.3769 10.3594 47.3058 10.3465 47.3058C10.265 47.31 10.2007 47.3894 10.2264 47.4521C10.295 47.6318 8.93954 46.445 7.97869 45.4838C7.31381 44.8194 6.30577 43.7119 6.36582 43.7119C6.37869 43.7119 6.51166 43.8039 6.6618 43.9125ZM40.5191 46.5118C39.065 47.8366 37.1862 49.1529 35.2816 50.1768C34.2564 50.7284 32.369 51.5893 31.7856 51.7731C31.6355 51.8191 30.3744 51.9445 30.057 51.9445C29.8897 51.9445 29.8939 51.9403 30.3529 51.6478C30.8977 51.2967 31.524 50.8412 32.0645 50.4024C32.6693 49.9135 34.1191 48.4718 34.6124 47.87C34.8569 47.5691 35.0843 47.3058 35.1186 47.2808C35.1486 47.2557 35.3031 47.2223 35.4661 47.2055C36.4441 47.1094 39.1594 46.6372 40.236 46.3698C40.8237 46.2235 40.8323 46.2277 40.5191 46.5118ZM12.9974 46.4868C13.7224 46.6581 14.9235 46.8921 15.5798 46.9966L16.043 47.0676L16.309 47.3643C17.8532 49.0735 19.9336 50.7159 21.8554 51.7397L22.1556 51.9027L21.8768 51.8776C21.0961 51.8108 20.5771 51.6185 18.8312 50.7702C16.9524 49.855 15.3481 48.8646 13.8511 47.6987C13.3792 47.3309 12.5385 46.6205 12.3111 46.399C12.2168 46.3071 12.2125 46.2987 12.2897 46.3196C12.3369 46.3321 12.6543 46.4074 12.9974 46.4868ZM17.4714 47.2599C18.4623 47.3852 19.3631 47.4688 20.547 47.5566C20.8902 47.5817 21.169 47.6067 21.1733 47.6109C21.1733 47.6151 21.3406 47.9285 21.5422 48.3088C22.2929 49.7213 22.932 50.6448 23.8886 51.6812C24.2532 52.0824 24.3175 52.049 23.3267 51.9821L22.6704 51.9403L22.0612 51.6102C20.2125 50.6114 18.4966 49.3201 17.0296 47.8157C16.4891 47.2641 16.3819 47.1387 16.4462 47.1387C16.4634 47.1387 16.9224 47.193 17.4714 47.2599ZM34.7111 47.4187C34.2607 48.0288 32.7765 49.5374 31.9787 50.1977C31.4124 50.6657 30.576 51.2675 29.9583 51.652C29.4007 51.9946 29.3234 52.0197 28.5771 52.0239L28.1781 52.0281L28.354 51.8275C29.036 51.0585 29.9197 49.575 30.5374 48.1751L30.7819 47.6193L31.2966 47.59C31.91 47.5524 33.7974 47.3936 34.1878 47.3518C34.3422 47.3309 34.5395 47.3142 34.6296 47.31L34.7926 47.3058L34.7111 47.4187ZM23.0993 47.6819C23.9015 47.707 24.8666 47.7321 25.2441 47.7363L25.9304 47.7446L25.939 48.0789C25.9647 48.7935 26.0848 51.397 26.1106 51.7314L26.1363 52.0824L25.3256 52.0615L24.5149 52.0364L24.1588 51.6687C23.524 51.0042 22.799 50.0514 22.2757 49.1822C21.9969 48.7183 21.5079 47.8157 21.4693 47.6861C21.4436 47.5984 21.4478 47.59 21.5379 47.6109C21.5937 47.6234 22.2972 47.6569 23.0993 47.6819ZM30.4001 47.9619C30.1685 48.5177 29.4007 49.9804 29.0961 50.4526C28.7401 51 28.2854 51.6102 28.0409 51.8734L27.8521 52.0698H27.1015H26.3508L26.3208 51.6812C26.2736 51.0376 26.1663 48.6097 26.1663 48.15V47.7237L27.2301 47.7196C27.8135 47.7154 28.6371 47.6987 29.0618 47.6861C29.4864 47.6694 29.9926 47.6527 30.1856 47.6485L30.5374 47.6402L30.4001 47.9619ZM37.8982 50.812C37.7781 50.9248 35.9594 51.6436 35.0028 51.957C32.9095 52.6465 30.5717 53.0937 28.4612 53.2191C28.2253 53.2316 27.9465 53.2525 27.8393 53.265C27.5304 53.3026 27.6634 53.2441 28.1438 53.1313C29.0875 52.9098 30.546 52.471 31.3824 52.1534C31.6355 52.0573 31.8886 52.003 32.4076 51.9403C34.265 51.7146 36.2468 51.3176 37.4478 50.929C37.9797 50.7577 37.9454 50.766 37.8982 50.812ZM16.828 51.2508C17.7932 51.5057 19.0843 51.7481 20.4055 51.9236C21.0575 52.0113 21.2119 52.0448 21.7781 52.2495C22.5117 52.5128 23.5497 52.8388 24.3218 53.0477C24.9224 53.2107 24.8666 53.2274 24.0216 53.1355C21.598 52.8764 19.509 52.3749 17.2141 51.5015C16.6221 51.2758 16.1074 51.0544 16.3562 51.1254C16.3948 51.1379 16.6092 51.1964 16.828 51.2508ZM22.9406 52.2955C23.0993 52.3707 23.3395 52.4752 23.4725 52.5295C23.9529 52.7218 23.6698 52.6591 22.8763 52.4042C22.4344 52.2621 22.0612 52.1325 22.0484 52.12C22.0355 52.1116 22.1685 52.1116 22.3401 52.1284C22.5674 52.1451 22.7304 52.191 22.9406 52.2955ZM30.1728 52.3415C29.5165 52.5546 28.1095 52.9474 28.0108 52.9474C27.9808 52.9474 28.3068 52.7803 28.7272 52.5755L29.4907 52.1994L29.9626 52.1618C30.932 52.0824 30.9449 52.0949 30.1728 52.3415ZM24.5192 52.3122C24.5706 52.354 24.7551 52.4961 24.931 52.634C25.1025 52.7719 25.2956 52.9182 25.3513 52.96L25.4586 53.0352L25.3513 53.0059C25.1068 52.9432 24.1503 52.5922 23.7041 52.4L23.228 52.1952L23.8285 52.2203C24.2961 52.237 24.4505 52.2579 24.5192 52.3122ZM25.5401 52.2788H26.1535L26.1835 52.7218C26.2007 52.9683 26.2049 53.1773 26.1921 53.1856C26.1578 53.2191 25.5272 52.8304 25.1497 52.5421C24.8023 52.2788 24.7251 52.2036 24.8623 52.2537C24.9009 52.2663 25.2055 52.2788 25.5401 52.2788ZM28.547 52.4334C28.3368 52.5379 28.0366 52.6758 27.8822 52.7427C27.5433 52.8806 27.1229 53.0435 27.1529 53.0226C27.1658 53.0143 27.3588 52.8346 27.5905 52.6215L28.0023 52.237L28.4698 52.2412H28.9331L28.547 52.4334ZM27.3503 52.563C27.0586 52.8262 26.5438 53.1982 26.4666 53.1982C26.4366 53.1982 26.3808 52.6967 26.3808 52.4167V52.2788H27.0242H27.6677L27.3503 52.563Z" fill="#FDFDFD"/>
</g>
<defs>
<clipPath id="clip0_234_1011">
<rect width="53.4906" height="53.4906" fill="white"/>
</clipPath>
</defs>
</svg>
